<svg width="20" height="16" viewBox="0 0 20 16" fill="none" xmlns="http://www.w3.org/2000/svg">
<path fill-rule="evenodd" clip-rule="evenodd" d="M19.4732 2.21613C18.7748 2.51951 18.0256 2.72548 17.2395 2.81732C18.0425 2.34416 18.6589 1.59267 18.9473 0.699229C18.1952 1.13899 17.3639 1.45629 16.479 1.62885C15.7693 0.88571 14.7599 0.420898 13.6402 0.420898C11.4942 0.420898 9.75252 2.13541 9.75252 4.24794C9.75252 4.54854 9.78645 4.84079 9.85431 5.11912C6.62257 4.96047 3.75839 3.43522 1.8414 1.11951C1.50777 1.68452 1.3155 2.34138 1.3155 3.04277C1.3155 4.37041 2.00256 5.54218 3.04588 6.22687C2.40971 6.20739 1.8103 6.03483 1.2844 5.74815C1.2844 5.76485 1.2844 5.77876 1.2844 5.79546C1.2844 7.64914 2.6246 9.19666 4.40304 9.54736C4.07789 9.63364 3.73295 9.68096 3.37952 9.68096C3.12788 9.68096 2.88472 9.65591 2.64722 9.61137C3.14201 11.1311 4.57834 12.2388 6.27762 12.2694C4.94591 13.2965 3.27208 13.9088 1.44839 13.9088C1.13455 13.9088 0.826357 13.8893 0.520996 13.8559C2.24007 14.9414 4.28429 15.576 6.4812 15.576C13.6317 15.576 17.5421 9.74497 17.5421 4.68771C17.5421 4.52071 17.5392 4.35649 17.5308 4.19228C18.2913 3.65232 18.9501 2.97876 19.4704 2.21056L19.4732 2.21613Z" fill="currentColor"/>
</svg>
