<svg width="67" height="16" viewBox="0 0 67 16" fill="none" xmlns="http://www.w3.org/2000/svg">
<path d="M15.8164 12.2039H18.8132C21.2063 12.2039 22.5745 10.736 22.5745 8.17675V8.16567C22.5745 5.66186 21.1896 4.21053 18.8132 4.21053H15.8164V12.2039ZM17.2456 11.0019V5.41258H18.6249C20.1925 5.41258 21.1176 6.43184 21.1176 8.18783V8.19891C21.1176 9.99368 20.2147 11.0019 18.6249 11.0019H17.2456Z" fill="currentColor"/>
<path d="M23.9703 12.2039H25.3994V4.21053H23.9703V12.2039Z" fill="currentColor"/>
<path d="M26.5348 12.2039H28.0305L28.6952 10.1377H31.6533L32.3235 12.2039H33.8192L30.983 4.21053H29.371L26.5348 12.2039ZM30.1299 5.69509H30.2241L31.2987 9.03536H29.0553L30.1299 5.69509Z" fill="currentColor"/>
<path d="M34.949 12.2039H40.0453V11.0019H36.3782V4.21053H34.949V12.2039Z" fill="currentColor"/>
<path d="M41.3414 12.2039H46.5152V11.0019H42.7705V8.71408H46.3102V7.5785H42.7705V5.41258H46.5152V4.21053H41.3414V12.2039Z" fill="currentColor"/>
<path d="M51.3786 12.4033C53.2232 12.4033 54.5472 11.3342 54.7577 9.73333V9.69455H53.3562L53.3506 9.72225C53.1457 10.603 52.3923 11.168 51.3786 11.168C50.0159 11.168 49.1684 10.0325 49.1684 8.20999V8.19891C49.1684 6.38198 50.0159 5.2464 51.3731 5.2464C52.3812 5.2464 53.1457 5.87235 53.3506 6.8196L53.3562 6.84175H54.7577V6.79744C54.5693 5.16331 53.19 4.01111 51.3731 4.01111C49.1074 4.01111 47.706 5.612 47.706 8.20445V8.21553C47.706 10.7969 49.113 12.4033 51.3786 12.4033Z" fill="currentColor"/>
<path d="M57.8872 12.2039H59.3164V5.41258H61.7815V4.21053H55.4277V5.41258H57.8872V12.2039Z" fill="currentColor"/>
<path fill-rule="evenodd" clip-rule="evenodd" d="M8.02868 13.4075C10.8979 13.4075 13.2239 11.0815 13.2239 8.21228C13.2239 5.34305 10.8979 3.01709 8.02868 3.01709C5.15946 3.01709 2.8335 5.34305 2.8335 8.21228C2.8335 11.0815 5.15946 13.4075 8.02868 13.4075ZM8.0287 11.6758C9.94152 11.6758 11.4922 10.1251 11.4922 8.21229C11.4922 6.29948 9.94152 4.74883 8.0287 4.74883C6.11588 4.74883 4.56524 6.29948 4.56524 8.21229C4.56524 10.1251 6.11588 11.6758 8.0287 11.6758Z" fill="currentColor" fill-opacity="0.4"/>
</svg>
