<svg width="12" height="13" viewBox="0 0 12 13" fill="none" xmlns="http://www.w3.org/2000/svg">
<path d="M1.63965 7.32129C1.63965 9.74316 3.58301 11.6914 6 11.6914C8.41699 11.6914 10.3604 9.74316 10.3604 7.32129C10.3604 7.0332 10.1602 6.82812 9.87207 6.82812C9.59375 6.82812 9.4082 7.0332 9.4082 7.32129C9.4082 9.21582 7.88965 10.7344 6 10.7344C4.11035 10.7344 2.59668 9.21582 2.59668 7.32129C2.59668 5.41699 4.10059 3.9082 5.98535 3.9082C6.30762 3.9082 6.60547 3.93262 6.85449 3.98633L5.52637 5.30469C5.43848 5.39746 5.39453 5.5 5.39453 5.62695C5.39453 5.89551 5.59473 6.10059 5.8584 6.10059C5.99512 6.10059 6.10742 6.05664 6.19043 5.96875L8.19727 3.94727C8.2998 3.84473 8.34863 3.72754 8.34863 3.5957C8.34863 3.46875 8.29492 3.3418 8.19727 3.24414L6.19043 1.20801C6.10742 1.11523 5.99512 1.06641 5.8584 1.06641C5.59473 1.06641 5.39453 1.28125 5.39453 1.54492C5.39453 1.67188 5.43848 1.78418 5.52148 1.87207L6.70312 3.03906C6.48828 2.99512 6.23926 2.9707 5.98535 2.9707C3.57324 2.9707 1.63965 4.9043 1.63965 7.32129Z" fill="currentColor"/>
</svg>
