<svg width="20" height="20" viewBox="0 0 20 20" fill="none" xmlns="http://www.w3.org/2000/svg">
<path d="M7.5 14.1667V13.4167C7.08579 13.4167 6.75 13.7525 6.75 14.1667H7.5ZM12.5 14.1667H13.25C13.25 13.7525 12.9142 13.4167 12.5 13.4167V14.1667ZM7.5 14.9167H12.5V13.4167H7.5V14.9167ZM11.75 14.1667V15H13.25V14.1667H11.75ZM8.25 15V14.1667H6.75V15H8.25ZM10 16.75C9.0335 16.75 8.25 15.9665 8.25 15H6.75C6.75 16.7949 8.20507 18.25 10 18.25V16.75ZM11.75 15C11.75 15.9665 10.9665 16.75 10 16.75V18.25C11.7949 18.25 13.25 16.7949 13.25 15H11.75Z" fill="currentColor"/>
<path d="M3.57739 12.2559L3.04706 11.7255H3.04706L3.57739 12.2559ZM4.00308 11.8302L4.53341 12.3605L4.53341 12.3605L4.00308 11.8302ZM15.9969 11.8302L16.5272 11.2998L16.5272 11.2998L15.9969 11.8302ZM16.4226 12.2559L16.9529 11.7256L16.9529 11.7256L16.4226 12.2559ZM9.99996 2.49994L9.99997 3.24994L9.99996 2.49994ZM15.8333 13.4166H4.16665V14.9166H15.8333V13.4166ZM4.08331 13.3333V12.8451H2.58331V13.3333H4.08331ZM4.10772 12.7862L4.53341 12.3605L3.47275 11.2999L3.04706 11.7255L4.10772 12.7862ZM4.91665 11.4353V8.33327H3.41665V11.4353H4.91665ZM15.0833 8.33327V11.4353H16.5833V8.33327H15.0833ZM15.4665 12.3605L15.8922 12.7862L16.9529 11.7256L16.5272 11.2998L15.4665 12.3605ZM15.9166 12.8451V13.3333H17.4166V12.8451H15.9166ZM15.8922 12.7862C15.9079 12.8018 15.9166 12.823 15.9166 12.8451H17.4166C17.4166 12.4252 17.2498 12.0225 16.9529 11.7256L15.8922 12.7862ZM15.0833 11.4353C15.0833 11.7823 15.2212 12.1151 15.4665 12.3605L16.5272 11.2998C16.5631 11.3358 16.5833 11.3845 16.5833 11.4353H15.0833ZM16.5833 8.33327C16.5833 4.69739 13.6358 1.74993 9.99996 1.74994L9.99997 3.24994C12.8074 3.24993 15.0833 5.52582 15.0833 8.33327H16.5833ZM4.91665 8.33327C4.91665 5.52583 7.19252 3.24995 9.99997 3.24994L9.99996 1.74994C6.36409 1.74995 3.41665 4.6974 3.41665 8.33327H4.91665ZM4.53341 12.3605C4.77879 12.1151 4.91665 11.7823 4.91665 11.4353H3.41665C3.41665 11.3845 3.43683 11.3358 3.47275 11.2999L4.53341 12.3605ZM4.08331 12.8451C4.08331 12.823 4.09209 12.8018 4.10772 12.7862L3.04706 11.7255C2.75013 12.0225 2.58331 12.4252 2.58331 12.8451H4.08331ZM4.16665 13.4166C4.12062 13.4166 4.08331 13.3793 4.08331 13.3333H2.58331C2.58331 14.2077 3.2922 14.9166 4.16665 14.9166V13.4166ZM15.8333 14.9166C16.7078 14.9166 17.4166 14.2077 17.4166 13.3333H15.9166C15.9166 13.3793 15.8793 13.4166 15.8333 13.4166V14.9166Z" fill="currentColor"/>
</svg>
