<svg width="56" height="17" viewBox="0 0 56 17" fill="none" xmlns="http://www.w3.org/2000/svg">
<path d="M4.25 12.9664H7.3469C9.81985 12.9664 11.2338 11.4494 11.2338 8.80475V8.7933C11.2338 6.20587 9.80267 4.70608 7.3469 4.70608H4.25V12.9664ZM5.7269 11.7242V5.94827H7.15227C8.77228 5.94827 9.72825 7.00156 9.72825 8.8162V8.82765C9.72825 10.6824 8.79518 11.7242 7.15227 11.7242H5.7269Z" fill="currentColor"/>
<path d="M12.6761 12.9664H14.153V4.70608H12.6761V12.9664Z" fill="currentColor"/>
<path d="M15.3264 12.9664H16.8719L17.5589 10.8312H20.6157L21.3084 12.9664H22.8539L19.9231 4.70608H18.2573L15.3264 12.9664ZM19.0415 6.24022H19.1388L20.2493 9.69203H17.931L19.0415 6.24022Z" fill="currentColor"/>
<path d="M24.0215 12.9664H29.288V11.7242H25.4984V4.70608H24.0215V12.9664Z" fill="currentColor"/>
<path d="M30.6273 12.9664H35.9739V11.7242H32.1042V9.36002H35.7621V8.18652H32.1042V5.94827H35.9739V4.70608H30.6273V12.9664Z" fill="currentColor"/>
<path d="M40.9998 13.1725C42.906 13.1725 44.2741 12.0677 44.4916 10.4133V10.3732H43.0434L43.0376 10.4019C42.8258 11.312 42.0473 11.8959 40.9998 11.8959C39.5916 11.8959 38.7157 10.7224 38.7157 8.8391V8.82765C38.7157 6.95004 39.5916 5.77654 40.994 5.77654C42.0359 5.77654 42.8258 6.4234 43.0376 7.40227L43.0434 7.42517H44.4916V7.37938C44.297 5.69068 42.8716 4.5 40.994 4.5C38.6528 4.5 37.2045 6.15435 37.2045 8.83337V8.84482C37.2045 11.5124 38.6585 13.1725 40.9998 13.1725Z" fill="currentColor"/>
<path d="M47.7257 12.9664H49.2026V5.94827H51.75V4.70608H45.1841V5.94827H47.7257V12.9664Z" fill="currentColor"/>
</svg>
