<svg width="44" height="16" viewBox="0 0 44 16" fill="none" xmlns="http://www.w3.org/2000/svg">
<path d="M4.57358 13.0384H0.862793V2.99915H4.56868C5.59155 2.99915 6.47227 3.20013 7.21083 3.60209C7.95266 4.00078 8.52456 4.57595 8.92652 5.32758C9.32848 6.07595 9.52946 6.97137 9.52946 8.01385C9.52946 9.05961 9.32848 9.9583 8.92652 10.7099C8.52783 11.4616 7.95756 12.0384 7.21573 12.4403C6.4739 12.839 5.59318 13.0384 4.57358 13.0384ZM3.28926 10.9697H4.48044C5.04253 10.9697 5.51802 10.875 5.90691 10.6854C6.29907 10.4926 6.59482 10.1805 6.79417 9.74915C6.99678 9.31451 7.09809 8.73608 7.09809 8.01385C7.09809 7.29163 6.99678 6.71647 6.79417 6.28836C6.59155 5.85699 6.29253 5.54653 5.89711 5.35699C5.50495 5.16418 5.02129 5.06778 4.44613 5.06778H3.28926V10.9697Z" fill="currentColor"/>
<path d="M10.2559 13.0384V5.50895H12.653V13.0384H10.2559ZM11.4569 4.6315C11.1203 4.6315 10.8311 4.52039 10.5893 4.29817C10.3474 4.07268 10.2265 3.80144 10.2265 3.48444C10.2265 3.17072 10.3474 2.90274 10.5893 2.68052C10.8311 2.45503 11.1203 2.34229 11.4569 2.34229C11.7968 2.34229 12.086 2.45503 12.3246 2.68052C12.5664 2.90274 12.6873 3.17072 12.6873 3.48444C12.6873 3.80144 12.5664 4.07268 12.3246 4.29817C12.086 4.52039 11.7968 4.6315 11.4569 4.6315Z" fill="currentColor"/>
<path d="M15.6111 13.1658C15.1307 13.1658 14.7042 13.0857 14.3317 12.9256C13.9624 12.7622 13.6699 12.5171 13.4542 12.1903C13.2418 11.8603 13.1356 11.4469 13.1356 10.9501C13.1356 10.5318 13.2091 10.1789 13.3562 9.89131C13.5032 9.60372 13.7058 9.37006 13.964 9.19032C14.2222 9.01059 14.5196 8.87497 14.8562 8.78346C15.1928 8.68869 15.5523 8.62497 15.9346 8.59229C16.3627 8.55307 16.7075 8.51222 16.9689 8.46974C17.2304 8.42399 17.4199 8.36026 17.5375 8.27856C17.6585 8.19359 17.7189 8.07431 17.7189 7.92072V7.89621C17.7189 7.64457 17.6323 7.45013 17.4591 7.31287C17.2859 7.17562 17.0523 7.10699 16.7581 7.10699C16.4411 7.10699 16.1862 7.17562 15.9934 7.31287C15.8006 7.45013 15.6781 7.63967 15.6258 7.8815L13.415 7.80307C13.4804 7.34555 13.6487 6.93706 13.9199 6.57758C14.1944 6.21483 14.5702 5.93052 15.0474 5.72464C15.5277 5.51549 16.1045 5.41091 16.7777 5.41091C17.2581 5.41091 17.7009 5.4681 18.1062 5.58248C18.5114 5.69359 18.8643 5.85699 19.165 6.07268C19.4657 6.2851 19.6977 6.54653 19.8611 6.85699C20.0277 7.16745 20.1111 7.52202 20.1111 7.92072V13.0384H17.8562V11.9893H17.7974C17.6634 12.2442 17.4918 12.4599 17.2826 12.6364C17.0768 12.8129 16.8333 12.9452 16.5523 13.0335C16.2745 13.1217 15.9608 13.1658 15.6111 13.1658ZM16.3513 11.5972C16.6094 11.5972 16.8415 11.5449 17.0474 11.4403C17.2565 11.3357 17.4232 11.192 17.5474 11.009C17.6715 10.8227 17.7336 10.607 17.7336 10.3619V9.64621C17.665 9.68216 17.5817 9.71483 17.4836 9.74425C17.3889 9.77366 17.2843 9.80144 17.1699 9.82758C17.0555 9.85372 16.9379 9.8766 16.817 9.89621C16.696 9.91582 16.58 9.93379 16.4689 9.95013C16.2434 9.98608 16.0506 10.0416 15.8905 10.1168C15.7336 10.192 15.6127 10.29 15.5277 10.4109C15.446 10.5286 15.4052 10.6691 15.4052 10.8325C15.4052 11.0808 15.4934 11.2704 15.6699 11.4011C15.8496 11.5318 16.0768 11.5972 16.3513 11.5972Z" fill="currentColor"/>
<path d="M23.2836 2.99915V13.0384H20.8866V2.99915H23.2836Z" fill="currentColor"/>
<path d="M27.6388 13.1805C26.8512 13.1805 26.1715 13.0253 25.5996 12.7148C25.0309 12.4011 24.593 11.955 24.2858 11.3766C23.9819 10.7949 23.8299 10.1037 23.8299 9.30307C23.8299 8.52529 23.9835 7.84555 24.2907 7.26385C24.5979 6.67889 25.0309 6.22464 25.5898 5.90111C26.1486 5.57431 26.8071 5.41091 27.5652 5.41091C28.1012 5.41091 28.5914 5.49425 29.0358 5.66091C29.4803 5.82758 29.8643 6.07431 30.1878 6.40111C30.5113 6.72791 30.763 7.1315 30.9427 7.61189C31.1224 8.08902 31.2123 8.6364 31.2123 9.25405V9.85209H24.6682V8.45993H28.9819C28.9786 8.20503 28.9182 7.97791 28.8005 7.77856C28.6829 7.57921 28.5211 7.42399 28.3152 7.31287C28.1126 7.19849 27.879 7.1413 27.6143 7.1413C27.3463 7.1413 27.1061 7.20176 26.8937 7.32268C26.6813 7.44033 26.513 7.60209 26.3888 7.80797C26.2646 8.01059 26.1992 8.24098 26.1927 8.49915V9.91581C26.1927 10.223 26.2532 10.4926 26.3741 10.7246C26.495 10.9534 26.6665 11.1315 26.8888 11.259C27.111 11.3864 27.3757 11.4501 27.6829 11.4501C27.8953 11.4501 28.0881 11.4207 28.2613 11.3619C28.4345 11.3031 28.5832 11.2165 28.7074 11.1021C28.8316 10.9877 28.9247 10.8472 28.9868 10.6805L31.1878 10.7442C31.0963 11.2377 30.8953 11.6674 30.5849 12.0335C30.2777 12.3962 29.8741 12.6789 29.3741 12.8815C28.8741 13.0808 28.2956 13.1805 27.6388 13.1805Z" fill="currentColor"/>
<path d="M35.2611 13.1805C34.467 13.1805 33.7856 13.0171 33.217 12.6903C32.6516 12.3635 32.217 11.9093 31.913 11.3276C31.6091 10.7426 31.4572 10.0661 31.4572 9.29817C31.4572 8.52693 31.6091 7.85046 31.913 7.26876C32.2202 6.68379 32.6565 6.22791 33.2219 5.90111C33.7905 5.57431 34.4686 5.41091 35.2562 5.41091C35.9523 5.41091 36.5585 5.53673 37.0748 5.78836C37.5944 6.04 37.9996 6.39621 38.2905 6.85699C38.5846 7.31451 38.7398 7.85209 38.7562 8.46974H36.516C36.4702 8.08412 36.3395 7.78183 36.1238 7.56287C35.9114 7.34392 35.6336 7.23444 35.2905 7.23444C35.0127 7.23444 34.7692 7.31287 34.5601 7.46974C34.3509 7.62333 34.1875 7.85209 34.0699 8.15601C33.9555 8.45666 33.8983 8.82921 33.8983 9.27366C33.8983 9.7181 33.9555 10.0939 34.0699 10.4011C34.1875 10.705 34.3509 10.9354 34.5601 11.0923C34.7692 11.2459 35.0127 11.3227 35.2905 11.3227C35.5127 11.3227 35.7088 11.2753 35.8787 11.1805C36.0519 11.0857 36.1941 10.9469 36.3052 10.7639C36.4163 10.5776 36.4866 10.3521 36.516 10.0874H38.7562C38.7333 10.7083 38.5781 11.2508 38.2905 11.7148C38.0062 12.1789 37.6059 12.54 37.0895 12.7982C36.5764 13.0531 35.967 13.1805 35.2611 13.1805Z" fill="currentColor"/>
<path d="M43.5427 5.50895V7.27366H38.7927V5.50895H43.5427ZM39.7878 3.70503H42.1849V10.6707C42.1849 10.8178 42.2077 10.9371 42.2535 11.0286C42.3025 11.1168 42.3728 11.1805 42.4643 11.2197C42.5558 11.2557 42.6652 11.2737 42.7927 11.2737C42.8842 11.2737 42.9806 11.2655 43.0819 11.2491C43.1865 11.2295 43.2649 11.2132 43.3172 11.2001L43.68 12.9305C43.5656 12.9632 43.4038 13.0041 43.1947 13.0531C42.9888 13.1021 42.742 13.1331 42.4545 13.1462C41.8924 13.1724 41.4103 13.107 41.0084 12.9501C40.6097 12.79 40.3041 12.5416 40.0917 12.205C39.8826 11.8684 39.7813 11.4452 39.7878 10.9354V3.70503Z" fill="currentColor"/>
</svg>
