<svg width="20" height="20" viewBox="0 0 20 20" fill="none" xmlns="http://www.w3.org/2000/svg">
<path d="M9.06998 20H10.93C11.6943 20 12.2928 19.53 12.4678 18.8018L12.8453 17.1705L13.0847 17.0783L14.5028 17.9539C15.1473 18.3594 15.9024 18.2581 16.4365 17.7143L17.7256 16.424C18.2781 15.8802 18.3702 15.1244 17.965 14.4885L17.0902 13.0783L17.1731 12.8479L18.8029 12.47C19.5212 12.2857 20 11.6866 20 10.9309V9.11521C20 8.35945 19.5304 7.76037 18.8029 7.57604L17.1915 7.18894L17.0994 6.94931L17.9742 5.53917C18.3794 4.90323 18.2781 4.15668 17.7348 3.59447L16.4457 2.30415C15.9116 1.76959 15.1565 1.6682 14.5212 2.06452L13.1031 2.93088L12.8453 2.82949L12.4678 1.19816C12.2928 0.470046 11.6943 0 10.93 0H9.06998C8.2965 0 7.70718 0.470046 7.53223 1.19816L7.1547 2.82949L6.89687 2.93088L5.47882 2.06452C4.83425 1.6682 4.07919 1.76959 3.54512 2.30415L2.25599 3.59447C1.71271 4.15668 1.61142 4.90323 2.01657 5.53917L2.90055 6.94931L2.79926 7.18894L1.19705 7.57604C0.460405 7.76037 0 8.35945 0 9.11521V10.9309C0 11.6866 0.469613 12.2857 1.19705 12.47L2.81768 12.8479L2.90976 13.0783L2.02578 14.4885C1.62063 15.1244 1.72192 15.8802 2.26519 16.424L3.55433 17.7143C4.09761 18.2581 4.85267 18.3594 5.48803 17.9539L6.90608 17.0783L7.1547 17.1705L7.53223 18.8018C7.70718 19.53 8.2965 20 9.06998 20ZM9.29098 18.3318C9.13444 18.3318 9.06077 18.2581 9.03315 18.1198L8.48987 15.8525C7.90055 15.7143 7.34807 15.4839 6.89687 15.1982L4.90792 16.424C4.79742 16.4977 4.68692 16.4885 4.56722 16.3779L3.59116 15.4009C3.48987 15.2995 3.48066 15.1889 3.56354 15.0691L4.78821 13.0783C4.53039 12.6452 4.28177 12.0922 4.14365 11.5115L1.86924 10.9677C1.73112 10.9401 1.66667 10.8664 1.66667 10.7097V9.32719C1.66667 9.16129 1.73112 9.09677 1.86924 9.05991L4.14365 8.52535C4.28177 7.90783 4.5488 7.33641 4.7698 6.94009L3.55433 4.95853C3.47145 4.82949 3.47145 4.71889 3.58195 4.60829L4.55801 3.64055C4.67772 3.53917 4.7698 3.52074 4.90792 3.59447L6.88766 4.80184C7.30203 4.553 7.90976 4.29493 8.48987 4.14747L9.03315 1.88018C9.06077 1.74194 9.13444 1.6682 9.29098 1.6682H10.709C10.8656 1.6682 10.9392 1.73272 10.9576 1.88018L11.5101 4.1659C12.1087 4.30415 12.6519 4.553 13.1031 4.81106L15.0829 3.60369C15.221 3.52995 15.3131 3.53917 15.4236 3.64977L16.4088 4.61751C16.5193 4.71889 16.5193 4.82949 16.4365 4.95853L15.221 6.94009C15.442 7.33641 15.7182 7.90783 15.8564 8.52535L18.1215 9.05991C18.2689 9.09677 18.3333 9.16129 18.3333 9.32719V10.7097C18.3333 10.8664 18.2597 10.9401 18.1215 10.9677L15.8471 11.5115C15.709 12.0922 15.4604 12.6452 15.2118 13.0783L16.4273 15.0691C16.5009 15.1889 16.5009 15.2995 16.3996 15.3917L15.4236 16.3779C15.3039 16.4885 15.1934 16.4977 15.0829 16.424L13.0939 15.1982C12.6427 15.4839 12.1179 15.7143 11.5101 15.8525L10.9576 18.1198C10.9392 18.2673 10.8656 18.3318 10.709 18.3318H9.29098ZM10 13.5023C11.9153 13.5023 13.4899 11.9263 13.4899 10C13.4899 8.09217 11.9153 6.51613 10 6.51613C8.08471 6.51613 6.50092 8.09217 6.50092 10C6.50092 11.9263 8.07551 13.5023 10 13.5023ZM10 11.9263C8.95028 11.9263 8.08471 11.0599 8.08471 10C8.08471 8.95853 8.95028 8.10138 10 8.10138C11.0313 8.10138 11.8877 8.95853 11.8877 10C11.8877 11.0507 11.0313 11.9263 10 11.9263Z" fill="currentColor"/>
</svg>
