<svg width="24" height="24" viewBox="0 0 24 24" fill="none" xmlns="http://www.w3.org/2000/svg">
    <path d="M7.74609 20.1006H16.2451C17.4229 20.1006 18.0029 19.5205 18.0029 18.2461V11.6807C18.0029 10.5293 17.5195 9.93164 16.5527 9.83496V7.66406C16.5527 4.32422 14.3291 2.71582 11.9912 2.71582C9.66211 2.71582 7.43848 4.32422 7.43848 7.66406V9.87012C6.5332 10.0107 5.98828 10.5908 5.98828 11.6807V18.2461C5.98828 19.5205 6.56836 20.1006 7.74609 20.1006ZM9.1084 7.49707C9.1084 5.43164 10.418 4.31543 11.9912 4.31543C13.5645 4.31543 14.8828 5.43164 14.8828 7.49707V9.82617L9.1084 9.83496V7.49707Z" fill="currentColor"/>
</svg>
