<svg width="24" height="24" viewBox="0 0 24 24" fill="none" xmlns="http://www.w3.org/2000/svg">
    <path d="M12 1.61719C9.97852 1.61719 8.09766 2.77734 7.46484 5.13281C7.45605 5.16797 7.45605 5.18555 7.44727 5.21191L8.87109 6.64453C8.87109 6.58301 8.87988 6.53027 8.87988 6.46875C9.03809 4.40332 10.3652 3.25195 12 3.25195C13.7227 3.25195 15.1377 4.51758 15.1377 6.91699V9.19336L11.4287 9.20215L18.2314 16.0049V11.0918C18.2314 9.94922 17.7744 9.35156 16.8428 9.21973V7.08398C16.8428 3.39258 14.5049 1.61719 12 1.61719ZM19.3916 20.7334C19.6641 21.0059 20.1211 21.0059 20.3848 20.7334C20.6484 20.4521 20.6572 20.0215 20.3848 19.7402L4.88965 4.2627C4.61719 3.99023 4.16895 3.98145 3.8877 4.2627C3.62402 4.52637 3.62402 4.9834 3.8877 5.24707L19.3916 20.7334ZM7.56152 19.8105H16.5352C16.6758 19.8105 16.8076 19.8018 16.9219 19.7842L6.55957 9.42188C5.98828 9.71191 5.75977 10.2656 5.75977 11.1533V17.9121C5.75977 19.2129 6.35742 19.8105 7.56152 19.8105Z" fill="currentColor"/>
</svg>
