<svg width="38" height="39" viewBox="0 0 38 39" fill="none" xmlns="http://www.w3.org/2000/svg">
<g opacity="0.6">
<path d="M14.25 27.6239V26.6239C13.6977 26.6239 13.25 27.0716 13.25 27.6239H14.25ZM23.75 27.6239H24.75C24.75 27.0716 24.3023 26.6239 23.75 26.6239V27.6239ZM14.25 28.6239H23.75V26.6239H14.25V28.6239ZM22.75 27.6239V29.2072H24.75V27.6239H22.75ZM15.25 29.2072V27.6239H13.25V29.2072H15.25ZM19 32.9572C16.9289 32.9572 15.25 31.2783 15.25 29.2072H13.25C13.25 32.3829 15.8244 34.9572 19 34.9572V32.9572ZM22.75 29.2072C22.75 31.2783 21.0711 32.9572 19 32.9572V34.9572C22.1756 34.9572 24.75 32.3829 24.75 29.2072H22.75Z" fill="currentColor"/>
<path fill-rule="evenodd" clip-rule="evenodd" d="M30.9941 28.4587C31.9714 28.0904 32.6666 27.1466 32.6666 26.0405V25.113C32.6666 24.4279 32.3944 23.7708 31.91 23.2863L31.1011 22.4775C31.0897 22.466 31.0833 22.4505 31.0833 22.4343V16.5405C31.0833 9.86704 25.6733 4.45714 18.9999 4.45715C15.6825 4.45716 12.6774 5.79402 10.4938 7.95838L11.908 9.37261C13.7296 7.57017 16.2348 6.45716 18.9999 6.45715C24.5688 6.45714 29.0833 10.9716 29.0833 16.5405V22.4343C29.0833 22.9809 29.3004 23.5051 29.6869 23.8917L30.4957 24.7005C30.6051 24.8099 30.6666 24.9583 30.6666 25.113V26.0405C30.6666 26.3627 30.4054 26.6238 30.0833 26.6238H29.1592L30.9941 28.4587ZM10.0963 11.8035C9.34333 13.2158 8.91659 14.8283 8.91659 16.5405V22.4343C8.91659 22.981 8.69944 23.5052 8.31291 23.8917L7.61375 23.1926L8.31291 23.8917L7.50411 24.7005C7.39471 24.8099 7.33325 24.9583 7.33325 25.113V26.0405C7.33325 26.3627 7.59442 26.6238 7.91659 26.6238H24.9166L26.9166 28.6238H7.91659C6.48985 28.6238 5.33325 27.4673 5.33325 26.0405V25.113C5.33325 24.4279 5.60542 23.7708 6.08989 23.2863L6.8987 22.4775C6.91015 22.4661 6.91659 22.4505 6.91659 22.4343V16.5405C6.91659 14.2721 7.54164 12.1497 8.62892 10.3362L10.0963 11.8035Z" fill="currentColor"/>
<line x1="0.707107" y1="2.00011" x2="34.7071" y2="36.0001" stroke="currentColor" stroke-width="2"/>
</g>
</svg>
