<svg width="114" height="114" viewBox="0 0 114 114" fill="none" xmlns="http://www.w3.org/2000/svg">
<path opacity="0.2" d="M63.9843 60.3934C64.0013 60.4444 64.0013 60.4996 63.9843 60.5507C63.9745 60.6016 63.9503 60.6487 63.9145 60.6862L61.6076 63.1121C61.5567 63.1645 61.4959 63.2061 61.4288 63.2345C61.3614 63.2641 61.2886 63.279 61.2151 63.2782H50.2732C50.2225 63.2787 50.1727 63.265 50.1293 63.2389C50.0859 63.2093 50.0512 63.1685 50.029 63.1209C50.0136 63.0725 50.0136 63.0206 50.029 62.9722C50.038 62.9219 50.0606 62.8751 50.0944 62.8367L52.4057 60.4108C52.4566 60.3585 52.5174 60.3169 52.5845 60.2885C52.6518 60.2585 52.7247 60.2436 52.7982 60.2447H63.7227C63.7754 60.2437 63.8272 60.259 63.8709 60.2885C63.92 60.3087 63.9602 60.3459 63.9843 60.3934ZM61.6119 55.7863C61.5599 55.7353 61.4994 55.6939 61.4331 55.6639C61.3651 55.6364 61.2927 55.6216 61.2194 55.6202H50.2732C50.2219 55.621 50.1718 55.6361 50.1286 55.6639C50.0855 55.6917 50.051 55.7311 50.029 55.7776C50.0139 55.826 50.0139 55.8778 50.029 55.9262C50.0363 55.977 50.0592 56.0244 50.0944 56.0617L52.4057 58.492C52.4577 58.543 52.5182 58.5844 52.5845 58.6144C52.6524 58.6422 52.7249 58.6571 52.7982 58.6581H63.7227C63.7754 58.6591 63.8272 58.6438 63.8709 58.6144C63.915 58.5886 63.9488 58.5485 63.9669 58.5007C63.9892 58.4542 63.9966 58.4019 63.988 58.351C63.9794 58.3001 63.9553 58.2531 63.9189 58.2166L61.6119 55.7863ZM50.1293 53.9942C50.1727 54.0204 50.2225 54.034 50.2732 54.0335H61.2194C61.2929 54.0343 61.3658 54.0194 61.4331 53.9898C61.5003 53.9614 61.5611 53.9198 61.6119 53.8674L63.9189 51.4415C63.9546 51.404 63.9788 51.357 63.9887 51.306C64.0038 51.2577 64.0038 51.2058 63.9887 51.1574C63.9706 51.1096 63.9368 51.0695 63.8927 51.0438C63.849 51.0143 63.7972 50.9991 63.7445 51.0001H52.7808C52.7072 50.9989 52.6343 51.0138 52.5671 51.0438C52.4999 51.0722 52.4391 51.1138 52.3883 51.1662L50.0813 53.6008C50.0447 53.6377 50.0204 53.685 50.0115 53.7363C49.9962 53.7847 49.9962 53.8366 50.0115 53.8849C50.0398 53.9317 50.0806 53.9695 50.1293 53.9942Z" fill="white"/>
<g opacity="0.2">
<rect x="6" y="6" width="12" height="12" rx="3" stroke="white" stroke-width="2"/>
<rect x="9" y="9" width="6" height="6" fill="white"/>
</g>
<g opacity="0.2">
<rect x="96" y="6" width="12" height="12" rx="3" stroke="white" stroke-width="2"/>
<rect x="99" y="9" width="6" height="6" fill="white"/>
</g>
<g opacity="0.2">
<rect x="6" y="96" width="12" height="12" rx="3" stroke="white" stroke-width="2"/>
<rect x="9" y="99" width="6" height="6" fill="white"/>
</g>
<path d="M9 2H105V0H9V2ZM112 9V105H114V9H112ZM105 112H9V114H105V112ZM2 105V9H0V105H2ZM9 112C5.13401 112 2 108.866 2 105H0C0 109.971 4.02944 114 9 114V112ZM112 105C112 108.866 108.866 112 105 112V114C109.971 114 114 109.971 114 105H112ZM105 2C108.866 2 112 5.13401 112 9H114C114 4.02944 109.971 0 105 0V2ZM9 0C4.02944 0 0 4.02944 0 9H2C2 5.13401 5.13401 2 9 2V0Z" fill="#333333"/>
</svg>
