<svg width="14" height="17" viewBox="0 0 14 17" fill="none" xmlns="http://www.w3.org/2000/svg">
<path d="M1 9.04883C1 9.83171 1.14388 10.5638 1.43164 11.2451C1.72363 11.9222 2.12565 12.5189 2.6377 13.0352C3.14974 13.5472 3.7443 13.9471 4.42139 14.2349C5.1027 14.5226 5.83268 14.6665 6.61133 14.6665C7.38574 14.6665 8.11149 14.5226 8.78857 14.2349C9.46989 13.9471 10.0666 13.5472 10.5786 13.0352C11.0949 12.5189 11.4969 11.9222 11.7847 11.2451C12.0724 10.5638 12.2163 9.83171 12.2163 9.04883C12.2163 8.89648 12.1676 8.77165 12.0703 8.67432C11.973 8.57275 11.846 8.52197 11.6895 8.52197C11.5371 8.52197 11.4165 8.57275 11.3276 8.67432C11.2388 8.77165 11.1943 8.89648 11.1943 9.04883C11.1943 9.68783 11.0758 10.2866 10.8389 10.8452C10.6019 11.3996 10.2739 11.8883 9.85498 12.3115C9.43604 12.7305 8.94938 13.0563 8.39502 13.2891C7.84066 13.526 7.24609 13.6445 6.61133 13.6445C5.97233 13.6445 5.37565 13.526 4.82129 13.2891C4.26693 13.0563 3.78027 12.7305 3.36133 12.3115C2.94238 11.8883 2.61442 11.3996 2.37744 10.8452C2.14046 10.2866 2.02197 9.68783 2.02197 9.04883C2.02197 8.41406 2.14046 7.8195 2.37744 7.26514C2.61442 6.71077 2.94238 6.22412 3.36133 5.80518C3.78027 5.38623 4.26693 5.05827 4.82129 4.82129C5.37565 4.58431 5.97233 4.46582 6.61133 4.46582C6.85254 4.46582 7.08317 4.4764 7.30322 4.49756C7.52751 4.51872 7.73275 4.55046 7.91895 4.59277L6.021 6.47168C5.97445 6.52246 5.93848 6.57959 5.91309 6.64307C5.8877 6.70231 5.875 6.76579 5.875 6.8335C5.875 6.97738 5.92367 7.09798 6.021 7.19531C6.11833 7.29264 6.23682 7.34131 6.37646 7.34131C6.53304 7.34131 6.65576 7.29264 6.74463 7.19531L9.35986 4.56738C9.41488 4.51237 9.45508 4.45312 9.48047 4.38965C9.50586 4.32617 9.51855 4.25846 9.51855 4.18652C9.51855 4.04264 9.46566 3.91569 9.35986 3.80566L6.74463 1.15234C6.65153 1.05078 6.52881 1 6.37646 1C6.23258 1 6.11198 1.05078 6.01465 1.15234C5.92155 1.24967 5.875 1.3724 5.875 1.52051C5.875 1.58398 5.88558 1.64746 5.90674 1.71094C5.93213 1.77441 5.9681 1.83154 6.01465 1.88232L7.70312 3.55176C7.53809 3.5179 7.36247 3.49251 7.17627 3.47559C6.9943 3.45443 6.80599 3.44385 6.61133 3.44385C5.83268 3.44385 5.1027 3.58984 4.42139 3.88184C3.7443 4.1696 3.14974 4.5695 2.6377 5.08154C2.12565 5.59359 1.72363 6.19027 1.43164 6.87158C1.14388 7.54867 1 8.27441 1 9.04883Z" fill="white"/>
</svg>
