<svg width="20" height="20" viewBox="0 0 20 20" fill="none" xmlns="http://www.w3.org/2000/svg">
<path fill-rule="evenodd" clip-rule="evenodd" d="M20 10C20 15.5228 15.5228 20 10 20C4.47715 20 0 15.5228 0 10C0 4.47715 4.47715 0 10 0C15.5228 0 20 4.47715 20 10ZM15.4381 9.90348H17.1176C17.6716 9.90348 18.099 10.468 17.98 11.0685C17.3356 14.3262 13.2115 17 10.1345 17H9.69545C6.20527 17 2.93126 13.6362 3.0011 9.76251C3.0686 6.01504 5.82661 3 9.21893 3C12.6538 3 15.4381 6.0907 15.4381 9.90348ZM5.88811 11.0002C6.34744 11.0002 6.72313 10.5832 6.72313 10.0733V8.57387C6.72313 8.06401 6.34744 7.64699 5.88811 7.64699C5.42877 7.64699 5.0531 8.06401 5.0531 8.57387V10.0733C5.0531 10.583 5.42877 11.0002 5.88811 11.0002ZM8.78764 11.0002C9.24695 11.0002 9.6226 10.5832 9.6226 10.0733V8.57387C9.6226 8.06401 9.24695 7.64699 8.78764 7.64699C8.32843 7.64699 7.95262 8.06401 7.95262 8.57387V10.0733C7.95262 10.583 8.32827 11.0002 8.78764 11.0002Z" fill="currentColor"/>
</svg>
