<svg width="18" height="20" viewBox="0 0 18 20" fill="none" xmlns="http://www.w3.org/2000/svg">
<path d="M6.0001 15.0004V14.1004C5.50304 14.1004 5.1001 14.5033 5.1001 15.0004H6.0001ZM12.0001 15.0004H12.9001C12.9001 14.5033 12.4972 14.1004 12.0001 14.1004V15.0004ZM1.29289 12.7071L0.656497 12.0707H0.656497L1.29289 12.7071ZM1.80372 12.1963L2.44011 12.8327L2.44011 12.8327L1.80372 12.1963ZM16.1963 12.1963L16.8327 11.5599L16.8327 11.5599L16.1963 12.1963ZM16.7071 12.7071L17.3435 12.0707L17.3435 12.0707L16.7071 12.7071ZM8.99998 1L8.99998 1.9L8.99998 1ZM6.0001 15.9004H12.0001V14.1004H6.0001V15.9004ZM11.1001 15.0004V16.0004H12.9001V15.0004H11.1001ZM6.9001 16.0004V15.0004H5.1001V16.0004H6.9001ZM9.0001 18.1004C7.8403 18.1004 6.9001 17.1602 6.9001 16.0004H5.1001C5.1001 18.1543 6.84619 19.9004 9.0001 19.9004V18.1004ZM11.1001 16.0004C11.1001 17.1602 10.1599 18.1004 9.0001 18.1004V19.9004C11.154 19.9004 12.9001 18.1543 12.9001 16.0004H11.1001ZM16 14.1H2V15.9H16V14.1ZM1.9 14V13.4142H0.1V14H1.9ZM1.92929 13.3435L2.44011 12.8327L1.16732 11.5599L0.656497 12.0707L1.92929 13.3435ZM2.9 11.7224V8H1.1V11.7224H2.9ZM15.1 8V11.7224H16.9V8H15.1ZM15.5599 12.8326L16.0707 13.3435L17.3435 12.0707L16.8327 11.5599L15.5599 12.8326ZM16.1 13.4142V14H17.9V13.4142H16.1ZM16.0707 13.3435C16.0895 13.3623 16.1 13.3877 16.1 13.4142H17.9C17.9 12.9103 17.6998 12.4271 17.3435 12.0707L16.0707 13.3435ZM15.1 11.7224C15.1 12.1388 15.2654 12.5382 15.5599 12.8327L16.8327 11.5599C16.8758 11.603 16.9 11.6614 16.9 11.7224H15.1ZM16.9 8C16.9 3.63694 13.363 0.0999892 8.99998 0.1L8.99998 1.9C12.3689 1.89999 15.1 4.63106 15.1 8H16.9ZM2.9 8C2.9 4.63107 5.63105 1.90001 8.99998 1.9L8.99998 0.1C4.63694 0.100011 1.1 3.63696 1.1 8H2.9ZM2.44011 12.8327C2.73457 12.5382 2.9 12.1389 2.9 11.7224H1.1C1.1 11.6615 1.12422 11.603 1.16732 11.5599L2.44011 12.8327ZM1.9 13.4142C1.9 13.3877 1.91054 13.3623 1.92929 13.3435L0.656497 12.0707C0.300177 12.427 0.1 12.9103 0.1 13.4142H1.9ZM2 14.1C1.94477 14.1 1.9 14.0552 1.9 14H0.1C0.1 15.0494 0.950659 15.9 2 15.9V14.1ZM16 15.9C17.0493 15.9 17.9 15.0494 17.9 14H16.1C16.1 14.0552 16.0552 14.1 16 14.1V15.9Z" fill="url(#paint0_linear_176_3)"/>
<defs>
<linearGradient id="paint0_linear_176_3" x1="5.78287e-09" y1="14" x2="18" y2="14" gradientUnits="userSpaceOnUse">
<stop stop-color="#53BC9E"/>
<stop offset="1" stop-color="#36A7CD"/>
</linearGradient>
</defs>
</svg>
