<svg width="38" height="39" viewBox="0 0 38 39" fill="none" xmlns="http://www.w3.org/2000/svg">
<g>
<line x1="0.707107" y1="2.00011" x2="34.7071" y2="36.0001" stroke="currentColor" stroke-width="2"/>
<path fill-rule="evenodd" clip-rule="evenodd" d="M22.2427 20.7072H27V18.7072H20.2427L22.2427 20.7072ZM18 20.7072L16 18.7072H11V20.7072H18Z" fill="currentColor"/>
<path fill-rule="evenodd" clip-rule="evenodd" d="M38 19.7072C38 23.9847 35.0159 27.5652 31.016 28.4806L29.2387 26.7032C32.9942 26.5774 36 23.4933 36 19.7072C36 15.8412 32.866 12.7072 29 12.7072H22V10.7072H29C33.9706 10.7072 38 14.7367 38 19.7072ZM13 26.7072H9C5.13401 26.7072 2 23.5732 2 19.7072C2 15.8412 5.13401 12.7072 9 12.7072H11L9 10.7072C4.02944 10.7072 0 14.7367 0 19.7072C0 24.6778 4.02944 28.7072 9 28.7072H13V26.7072ZM22 26.7072V28.7072H27L25 26.7072H22Z" fill="currentColor"/>
</g>
</svg>
